<svg version="1.1" id="Layer_1" xmlns="http://www.w3.org/2000/svg" xmlns:xlink="http://www.w3.org/1999/xlink" x="0px" y="0px"
	 width="100%" viewBox="0 0 512 512" enable-background="new 0 0 512 512" xml:space="preserve">
<path fill="#000000" opacity="1.000000" stroke="none" 
	d="
M308.000000,513.000000 
	C205.358261,513.000000 103.216515,513.000000 1.037387,513.000000 
	C1.037387,342.399902 1.037387,171.799789 1.037387,1.099841 
	C171.558426,1.099841 342.116913,1.099841 512.837708,1.099841 
	C512.837708,171.666534 512.837708,342.333252 512.837708,513.000000 
	C444.799774,513.000000 376.649872,513.000000 308.000000,513.000000 
M97.643318,441.001678 
	C108.097778,443.950623 118.631912,444.320770 129.557693,444.260376 
	C214.545975,443.790741 299.538025,444.001984 384.528900,443.998840 
	C391.233063,443.998596 398.092621,444.884216 404.611542,443.777374 
	C422.351624,440.765411 437.509277,432.831848 449.093872,418.510864 
	C459.871399,405.187469 465.815094,390.192810 465.930359,373.084778 
	C465.991699,363.985657 465.062500,354.882172 465.045746,345.779816 
	C464.952087,294.952118 465.000763,244.124161 465.000458,193.296280 
	C465.000427,191.963089 465.046051,190.627625 464.984497,189.297180 
	C464.832916,186.020386 463.140961,184.028366 459.816559,184.066879 
	C457.563751,184.092957 455.134979,184.256592 453.097260,185.107086 
	C436.231262,192.146652 418.901703,194.000229 400.837769,191.079559 
	C380.239594,187.749115 362.785858,178.396942 348.436584,163.672348 
	C340.149597,155.168640 333.493683,145.244263 328.926056,134.004929 
	C322.120819,117.259720 319.322235,100.165016 322.926361,82.289482 
	C324.772980,73.130623 322.335632,69.999390 313.091522,69.999352 
	C252.264709,69.999138 191.437912,69.999611 130.611099,69.996933 
	C129.111725,69.996872 127.611847,69.928566 126.113068,69.950699 
	C120.251396,70.037270 114.257011,69.389008 108.553337,70.389694 
	C90.770676,73.509598 75.770493,81.692215 64.339294,96.084259 
	C54.584518,108.365669 49.013000,122.232552 48.121010,137.789658 
	C47.735321,144.516357 48.947300,151.318207 48.955402,158.086487 
	C49.029812,220.246414 49.031685,282.406464 48.955601,344.566376 
	C48.946705,351.835175 48.386429,359.105774 47.999706,366.371155 
	C46.852280,387.927826 53.686970,406.674347 68.192574,422.517426 
	C76.059509,431.109741 85.998383,436.779663 97.643318,441.001678 
M401.000000,123.501534 
	C401.000061,132.991913 400.932709,142.483170 401.057037,151.971909 
	C401.081909,153.870834 401.497681,155.923035 402.314148,157.626038 
	C406.013214,165.341583 412.771790,168.129257 422.007843,165.998657 
	C428.565491,164.485901 432.998199,158.221298 432.999359,150.453323 
	C433.001556,135.539215 433.000000,120.625099 433.000000,104.669342 
	C434.545776,106.132042 435.482422,106.768456 436.092346,107.634872 
	C441.172119,114.850899 454.989319,114.313484 460.304474,108.380821 
	C466.695404,101.247360 466.846924,91.441055 459.691772,84.214149 
	C449.500641,73.920837 438.942322,63.973682 429.095947,53.363529 
	C423.871521,47.733849 410.154327,47.711845 404.870850,53.393730 
	C394.673676,64.359802 383.748047,74.645645 373.227478,85.315109 
	C367.979980,90.636894 367.708771,97.206459 370.385315,103.571632 
	C372.818390,109.357964 377.719025,112.497818 384.238464,113.047333 
	C391.128998,113.628113 395.880280,109.865059 401.000000,104.655777 
	C401.000000,111.311844 401.000000,116.907333 401.000000,123.501534 
z"/>
<path fill="#3A6CE9" opacity="1.000000" stroke="none" 
	d="
M97.240204,440.949432 
	C85.998383,436.779663 76.059509,431.109741 68.192574,422.517426 
	C53.686970,406.674347 46.852280,387.927826 47.999706,366.371155 
	C48.386429,359.105774 48.946705,351.835175 48.955601,344.566376 
	C49.031685,282.406464 49.029812,220.246414 48.955402,158.086487 
	C48.947300,151.318207 47.735321,144.516357 48.121010,137.789658 
	C49.013000,122.232552 54.584518,108.365669 64.339294,96.084259 
	C75.770493,81.692215 90.770676,73.509598 108.553337,70.389694 
	C114.257011,69.389008 120.251396,70.037270 126.113068,69.950699 
	C127.611847,69.928566 129.111725,69.996872 130.611099,69.996933 
	C191.437912,69.999611 252.264709,69.999138 313.091522,69.999352 
	C322.335632,69.999390 324.772980,73.130623 322.926361,82.289482 
	C319.322235,100.165016 322.120819,117.259720 328.926056,134.004929 
	C333.493683,145.244263 340.149597,155.168640 348.436584,163.672348 
	C362.785858,178.396942 380.239594,187.749115 400.837769,191.079559 
	C418.901703,194.000229 436.231262,192.146652 453.097260,185.107086 
	C455.134979,184.256592 457.563751,184.092957 459.816559,184.066879 
	C463.140961,184.028366 464.832916,186.020386 464.984497,189.297180 
	C465.046051,190.627625 465.000427,191.963089 465.000458,193.296280 
	C465.000763,244.124161 464.952087,294.952118 465.045746,345.779816 
	C465.062500,354.882172 465.991699,363.985657 465.930359,373.084778 
	C465.815094,390.192810 459.871399,405.187469 449.093872,418.510864 
	C437.509277,432.831848 422.351624,440.765411 404.611542,443.777374 
	C398.092621,444.884216 391.233063,443.998596 384.528900,443.998840 
	C299.538025,444.001984 214.545975,443.790741 129.557693,444.260376 
	C118.631912,444.320770 108.097778,443.950623 97.240204,440.949432 
z"/>
<path fill="#396CE8" opacity="1.000000" stroke="none" 
	d="
M401.000000,123.002174 
	C401.000000,116.907333 401.000000,111.311844 401.000000,104.655777 
	C395.880280,109.865059 391.128998,113.628113 384.238464,113.047333 
	C377.719025,112.497818 372.818390,109.357964 370.385315,103.571632 
	C367.708771,97.206459 367.979980,90.636894 373.227478,85.315109 
	C383.748047,74.645645 394.673676,64.359802 404.870850,53.393730 
	C410.154327,47.711845 423.871521,47.733849 429.095947,53.363529 
	C438.942322,63.973682 449.500641,73.920837 459.691772,84.214149 
	C466.846924,91.441055 466.695404,101.247360 460.304474,108.380821 
	C454.989319,114.313484 441.172119,114.850899 436.092346,107.634872 
	C435.482422,106.768456 434.545776,106.132042 433.000000,104.669342 
	C433.000000,120.625099 433.001556,135.539215 432.999359,150.453323 
	C432.998199,158.221298 428.565491,164.485901 422.007843,165.998657 
	C412.771790,168.129257 406.013214,165.341583 402.314148,157.626038 
	C401.497681,155.923035 401.081909,153.870834 401.057037,151.971909 
	C400.932709,142.483170 401.000061,132.991913 401.000000,123.002174 
z"/>
</svg>